<svg width="80" height="26" viewBox="0 0 80 26" fill="none" xmlns="http://www.w3.org/2000/svg">
<g clip-path="url(#clip0_35392_222)">
<path d="M4.26411 2.17594C4.26411 2.79994 4.25211 3.53194 4.22811 4.37194C4.20411 5.18794 4.18011 5.81194 4.15611 6.24394C4.08411 7.46794 4.04811 8.69194 4.04811 9.91594C4.04811 10.8279 4.08411 11.7759 4.15611 12.7599C4.90011 11.6799 5.70411 10.8879 6.56811 10.3839C7.43211 9.87994 8.47611 9.62794 9.70011 9.62794C10.5881 9.62794 11.4161 10.0239 12.1841 10.8159C12.9521 11.6079 13.4441 12.5319 13.6601 13.5879C13.7321 14.5239 13.7681 15.6639 13.7681 17.0079C13.7681 17.8719 13.8161 18.9999 13.9121 20.3919C13.9601 20.9199 14.0921 21.4119 14.3081 21.8679C14.5481 22.3239 14.8841 22.5519 15.3161 22.5519C15.5321 22.5519 15.7001 22.5399 15.8201 22.5159C15.9641 22.4919 16.0961 22.4799 16.2161 22.4799C16.5521 22.4799 16.7801 22.5639 16.9001 22.7319C17.0441 22.8999 17.1161 23.1399 17.1161 23.4519C17.1161 24.0279 16.8281 24.4599 16.2521 24.7479C15.6761 25.0359 15.1481 25.1799 14.6681 25.1799C12.9401 25.1799 11.7521 24.4599 11.1041 23.0199C10.7441 22.2039 10.5161 21.1479 10.4201 19.8519C10.3241 18.5319 10.2761 16.9959 10.2761 15.2439C10.2761 13.5159 9.68811 12.6519 8.51211 12.6519C7.86411 12.6519 7.20411 12.9999 6.53211 13.6959C5.88411 14.3679 5.34411 15.2679 4.91211 16.3959C4.48011 17.4999 4.26411 18.6519 4.26411 19.8519L4.30011 23.5959C4.30011 24.1239 4.09611 24.5199 3.68811 24.7839C3.28011 25.0239 2.89611 25.1439 2.53611 25.1439C2.00811 25.1439 1.52811 24.9879 1.09611 24.6759C0.664109 24.3399 0.448109 23.9679 0.448109 23.5599C0.616109 21.7599 0.700109 18.7479 0.700109 14.5239C0.700109 13.7559 0.640109 10.9119 0.520109 5.99194L0.412109 2.67994C0.412109 2.15194 0.652109 1.69594 1.13211 1.31194C1.61211 0.903941 2.15211 0.699942 2.75211 0.699942C3.28011 0.699942 3.66411 0.819941 3.90411 1.05994C4.14411 1.29994 4.26411 1.67194 4.26411 2.17594ZM21.6152 1.88794C22.4552 1.95994 23.1872 2.18794 23.8112 2.57194C24.4352 2.93194 24.7472 3.48394 24.7472 4.22794C24.7472 4.77994 24.4832 5.22394 23.9552 5.55994C23.4512 5.87194 22.8392 6.02794 22.1192 6.02794C21.4232 6.02794 20.9432 5.84794 20.6792 5.48794C20.4152 5.12794 20.2832 4.75594 20.2832 4.37194C20.2832 3.65194 20.3552 3.05194 20.4992 2.57194C20.6672 2.09194 21.0392 1.86394 21.6152 1.88794ZM24.4952 17.8359V18.8799C24.4952 19.8159 24.5192 20.7039 24.5672 21.5439C24.6392 22.3599 24.7232 23.1879 24.8192 24.0279C24.7952 24.2679 24.6152 24.5199 24.2792 24.7839C23.9432 25.0239 23.6432 25.1439 23.3792 25.1439C22.9232 25.1439 22.4552 25.0599 21.9752 24.8919C21.5192 24.6999 21.2432 24.4719 21.1472 24.2079C21.0032 23.4399 20.9312 22.7559 20.9312 22.1559C20.9312 20.1879 20.8712 17.9799 20.7512 15.5319C20.6552 13.3719 20.6072 11.8599 20.6072 10.9959C20.6072 10.5639 20.8232 10.1919 21.2552 9.87994C21.6872 9.56794 22.1432 9.41194 22.6232 9.41194C23.3192 9.41194 23.7992 9.56794 24.0632 9.87994C24.3512 10.1919 24.4952 10.6839 24.4952 11.3559V17.8359ZM36.9061 3.79594C36.1861 3.79594 35.7421 4.39594 35.5741 5.59594C35.4061 7.22794 35.3221 8.46394 35.3221 9.30394C35.8021 9.35194 36.3061 9.37594 36.8341 9.37594C37.1701 9.37594 37.6021 9.35194 38.1301 9.30394L39.0661 9.26794C39.5461 9.26794 39.9061 9.35194 40.1461 9.51994C40.3861 9.68794 40.5061 9.96394 40.5061 10.3479C40.5061 10.8759 40.3261 11.3319 39.9661 11.7159C39.6301 12.0759 39.2341 12.2559 38.7781 12.2559C37.0501 12.2559 35.8861 12.3399 35.2861 12.5079C35.2861 13.9719 35.3581 16.0479 35.5021 18.7359L35.5741 20.4999L35.7181 23.3079C35.7661 24.0039 35.6941 24.4959 35.5021 24.7839C35.3341 25.0479 34.9621 25.1799 34.3861 25.1799C33.3301 25.1799 32.6461 24.5439 32.3341 23.2719C32.1421 22.3359 31.9861 21.0279 31.8661 19.3479C31.7461 17.6679 31.6861 16.1679 31.6861 14.8479C31.6861 14.1519 31.7221 13.3599 31.7941 12.4719C31.7461 12.4479 31.6141 12.4359 31.3981 12.4359C31.1821 12.4359 31.0261 12.4479 30.9301 12.4719C30.2101 12.5199 29.6821 12.5439 29.3461 12.5439C29.1301 12.5439 28.9141 12.3999 28.6981 12.1119C28.4821 11.7999 28.3741 11.4279 28.3741 10.9959C28.3741 10.7559 28.4581 10.5399 28.6261 10.3479C28.7941 10.1319 28.9981 9.97594 29.2381 9.87994C29.5981 9.68794 30.1141 9.59194 30.7861 9.59194L31.8661 9.62794C31.8661 6.21994 32.2501 3.85594 33.0181 2.53594C33.7381 1.28794 34.9261 0.66394 36.5821 0.66394C37.5421 0.66394 38.4181 0.90394 39.2101 1.38394C39.5461 1.59994 39.7981 1.86394 39.9661 2.17594C40.1581 2.48794 40.2541 2.78794 40.2541 3.07594C40.2541 3.43594 40.1101 3.80794 39.8221 4.19194C39.5581 4.57594 39.1501 4.76794 38.5981 4.76794C38.3821 4.76794 38.1061 4.59994 37.7701 4.26394C37.6501 4.14394 37.5181 4.03594 37.3741 3.93994C37.2301 3.84394 37.0741 3.79594 36.9061 3.79594ZM47.5924 19.4199C47.5924 20.3319 47.7244 21.0399 47.9884 21.5439C48.2764 22.0239 48.6364 22.2639 49.0684 22.2639C49.3084 22.2639 49.5364 22.2519 49.7524 22.2279C49.9684 22.1799 50.1844 22.1559 50.4004 22.1559C50.6404 22.1559 50.8444 22.2759 51.0124 22.5159C51.2044 22.7559 51.3004 23.0199 51.3004 23.3079C51.3004 23.8839 51.0244 24.3399 50.4724 24.6759C49.9444 24.9879 49.2244 25.1439 48.3124 25.1439C47.6644 25.1439 47.0044 24.9519 46.3324 24.5679C45.6844 24.1599 45.1444 23.5359 44.7124 22.6959C44.2804 21.8319 44.0644 20.7639 44.0644 19.4919C44.0644 16.7559 44.1124 14.4399 44.2084 12.5439C44.3284 10.2879 44.3884 7.44394 44.3884 4.01194C44.3884 2.93194 44.4484 2.17594 44.5684 1.74394C44.7124 1.40794 44.9404 1.15594 45.2524 0.98794C45.5884 0.795941 45.9364 0.699942 46.2964 0.699942C46.6564 0.699942 46.9684 0.759942 47.2324 0.879941C47.5204 0.999941 47.7124 1.19194 47.8084 1.45594C47.9044 1.74394 47.9644 2.03194 47.9884 2.31994C48.0364 2.58394 48.0604 2.96794 48.0604 3.47194C48.0604 4.45594 48.0244 5.40394 47.9524 6.31594C47.9044 7.41994 47.8804 8.22394 47.8804 8.72794C47.6884 12.9519 47.5924 16.5159 47.5924 19.4199ZM56.0918 1.88794C56.9318 1.95994 57.6638 2.18794 58.2878 2.57194C58.9118 2.93194 59.2238 3.48394 59.2238 4.22794C59.2238 4.77994 58.9598 5.22394 58.4318 5.55994C57.9278 5.87194 57.3158 6.02794 56.5958 6.02794C55.8998 6.02794 55.4198 5.84794 55.1558 5.48794C54.8918 5.12794 54.7598 4.75594 54.7598 4.37194C54.7598 3.65194 54.8318 3.05194 54.9758 2.57194C55.1438 2.09194 55.5158 1.86394 56.0918 1.88794ZM58.9718 17.8359V18.8799C58.9718 19.8159 58.9958 20.7039 59.0438 21.5439C59.1158 22.3599 59.1998 23.1879 59.2958 24.0279C59.2958 24.3159 59.1278 24.5799 58.7918 24.8199C58.4558 25.0359 58.1438 25.1439 57.8558 25.1439C57.3998 25.1439 56.9318 25.0599 56.4518 24.8919C55.9958 24.6999 55.7198 24.4719 55.6238 24.2079C55.4798 23.4399 55.4078 22.7559 55.4078 22.1559C55.4078 20.1879 55.3478 17.9799 55.2278 15.5319C55.1318 13.3719 55.0838 11.8599 55.0838 10.9959C55.0838 10.5639 55.2998 10.1919 55.7318 9.87994C56.1638 9.56794 56.6198 9.41194 57.0998 9.41194C57.7958 9.41194 58.2758 9.56794 58.5398 9.87994C58.8278 10.1919 58.9718 10.6839 58.9718 11.3559V17.8359ZM76.1347 9.12394C76.6147 9.12394 76.9867 9.24394 77.2507 9.48394C77.5387 9.69994 77.6827 9.97594 77.6827 10.3119C77.6827 10.5519 77.6347 10.8039 77.5387 11.0679C77.4667 11.3079 77.3827 11.5599 77.2867 11.8239C76.7347 13.1199 75.5707 14.9319 73.7947 17.2599C75.6187 19.6119 77.0947 21.1239 78.2227 21.7959C78.3187 21.8439 78.4987 21.9279 78.7627 22.0479C79.0267 22.1679 79.2307 22.3119 79.3747 22.4799C79.5427 22.6479 79.6267 22.8399 79.6267 23.0559C79.6267 23.5839 79.4227 24.0159 79.0147 24.3519C78.6307 24.6639 78.1627 24.8199 77.6107 24.8199C76.6747 24.8199 75.6547 24.3039 74.5507 23.2719C73.4467 22.2159 72.5107 21.1119 71.7427 19.9599C71.1907 20.7999 70.5547 21.6399 69.8347 22.4799C69.1387 23.2959 68.4907 23.9919 67.8907 24.5679C67.6507 24.8319 67.3627 25.0359 67.0267 25.1799C66.7147 25.3239 66.4027 25.3959 66.0907 25.3959C65.6587 25.3959 65.2747 25.2999 64.9387 25.1079C64.6027 24.9159 64.4347 24.5799 64.4347 24.0999C64.4347 23.9799 64.5187 23.7879 64.6867 23.5239C64.8547 23.2359 64.9507 23.0679 64.9747 23.0199C65.2627 22.5159 65.6467 21.9999 66.1267 21.4719C66.6067 20.9199 66.9067 20.5719 67.0267 20.4279C67.3147 20.0679 67.6267 19.7199 67.9627 19.3839C68.1547 19.1679 68.4427 18.8319 68.8267 18.3759C69.2107 17.9199 69.4747 17.5599 69.6187 17.2959L68.3587 15.5679C67.7587 14.8719 67.2427 14.3199 66.8107 13.9119C66.3787 13.4799 66.0307 13.2639 65.7667 13.2639C65.3827 13.2639 65.0227 13.3719 64.6867 13.5879C64.3987 13.7799 64.1107 13.8759 63.8227 13.8759C63.5107 13.8759 63.2707 13.8039 63.1027 13.6599C62.9347 13.4919 62.8507 13.3119 62.8507 13.1199C62.8507 12.3039 63.1747 11.6079 63.8227 11.0319C64.4707 10.4319 65.2867 10.1319 66.2707 10.1319C67.2067 10.1319 68.0347 10.4559 68.7547 11.1039C69.4987 11.7279 70.2307 12.5679 70.9507 13.6239C71.0467 13.7199 71.1547 13.8759 71.2747 14.0919C71.3947 14.3079 71.5147 14.4879 71.6347 14.6319C71.8987 14.2479 72.3787 13.5039 73.0747 12.3999C73.8187 11.0799 74.2627 10.3239 74.4067 10.1319C74.9107 9.45994 75.4867 9.12394 76.1347 9.12394Z" fill="#D00707"/>
</g>
<defs>
<clipPath id="clip0_35392_222">
<rect width="80" height="26" fill="white"/>
</clipPath>
</defs>
</svg>
